# xmcd CD database file
# Generated: Sun Dec  2 19:19:51 2001 by WSPse's MP3c
#
# Track frame offsets:
#       150
#       11653
#       22923
#       37730
#       57515
#       72813
#       85963
#       103070
#       121560
#       136320
#
# Disc length: 2058 seconds
#
# Revision: 2
# Processed by: cddbd v1.4PL0 Copyright (c) Steve Scherf et al.
# Submitted via: MP3c 0.27
#   WSPse mp3c-0.27 (NLS) - ENGLISH (Nov 29 2001)
#
DISCID=7508080a
DTITLE=Kelly Willis - Kelly Willis
DYEAR=1900
DGENRE=
TTITLE0=Take It All Out On You
TTITLE1=Heaven's Just A Sin Away
TTITLE2=One More Night
TTITLE3=That'll Be Me
TTITLE4=Whatever Way The Wind Blows
TTITLE5=Get Real
TTITLE6=I Know Better Now
TTITLE7=Up All Night
TTITLE8=World Without You
TTITLE9=Shadows Of Love
EXTD=
EXTT0=
EXTT1=
EXTT2=
EXTT3=
EXTT4=
EXTT5=
EXTT6=
EXTT7=
EXTT8=
EXTT9=
PLAYORDER=
